<svg width="197" height="172" viewBox="0 0 197 172" fill="none" xmlns="http://www.w3.org/2000/svg">
<g id="Logo Farmers Fresh 1" clip-path="url(#clip0_24_241)">
<g id="Clip path group">
<mask id="mask0_24_241" style="mask-type:luminance" maskUnits="userSpaceOnUse" x="0" y="0" width="197" height="172">
<g id="clip0">
<path id="Vector" d="M197 0H0V172H197V0Z" fill="white"/>
</g>
</mask>
<g mask="url(#mask0_24_241)">
<g id="Group">
<path id="Vector_2" d="M88.602 49.7283C88.602 49.7717 88.6013 49.8137 88.6013 49.8564C88.6013 54.4329 89.7738 58.9558 91.2615 62.5111C89.5221 59.6859 87.7235 54.7985 87.7235 49.8277C87.7235 49.794 87.7235 49.7608 87.7235 49.7283C87.7235 49.6958 87.7235 49.6634 87.7235 49.6302C87.7235 44.6505 90.2612 39.7543 92.0415 36.9309C90.2546 40.4888 88.6013 45.0174 88.6013 49.6003C88.6013 49.6436 88.602 49.6863 88.602 49.7283ZM98.7307 24.9221C98.7307 24.9221 86.106 37.0812 86.106 49.5608C86.106 49.6149 86.1067 49.6685 86.1067 49.7207C86.1067 49.7742 86.106 49.8277 86.106 49.8812C86.106 62.3614 95.0833 74.5205 98.7307 74.5205C102.377 74.5205 111.356 62.3614 111.356 49.8812C111.356 49.8277 111.354 49.7742 111.354 49.7207C111.354 49.6685 111.356 49.6149 111.356 49.5608C111.356 37.0812 98.7307 24.9221 98.7307 24.9221Z" fill="#174421"/>
<path id="Vector_3" d="M87.7235 104.058C87.7235 104.026 87.7235 103.992 87.7235 103.96C87.7235 103.927 87.7235 103.895 87.7235 103.862C87.7235 98.8897 89.5221 94.003 91.2615 91.1778C89.7738 94.7331 88.6013 99.256 88.6013 103.832C88.6013 103.875 88.602 103.917 88.602 103.96C88.602 104.003 88.6013 104.045 88.6013 104.088C88.6013 108.671 90.2546 113.2 92.0415 116.758C90.2612 113.934 87.7235 109.038 87.7235 104.058ZM98.7307 79.1683C95.0833 79.1683 86.106 91.3287 86.106 103.808C86.106 103.861 86.1067 103.915 86.1067 103.968C86.1067 104.021 86.106 104.074 86.106 104.127C86.106 116.607 98.7307 128.767 98.7307 128.767C98.7307 128.767 111.356 116.607 111.356 104.127C111.356 104.074 111.354 104.021 111.354 103.968C111.354 103.915 111.356 103.861 111.356 103.808C111.356 91.3287 102.377 79.1683 98.7307 79.1683Z" fill="#174421"/>
<path id="Vector_4" d="M53.6462 83.0326C53.6813 83.0632 53.7156 83.0925 53.7506 83.1224C53.7849 83.153 53.8192 83.183 53.8534 83.2129C57.56 86.4497 62.0508 88.9239 65.9821 90.5191C62.4645 89.5954 57.2345 87.2498 53.2084 83.734C53.1822 83.7117 53.1559 83.6881 53.1296 83.6652C53.1027 83.6416 53.0756 83.6193 53.0494 83.5958C49.016 80.0742 46.8454 75.0454 45.818 71.9501C47.4356 75.5691 49.9346 79.7914 53.6462 83.0326ZM51.9798 84.6571C52.0228 84.6953 52.0651 84.7335 52.1089 84.7711C62.2157 93.5953 78.412 96.6512 80.9906 94.3999C83.5691 92.1486 80.0698 78.007 69.9629 69.1828C69.9191 69.1452 69.8754 69.1083 69.8323 69.0707C69.7893 69.0325 69.7462 68.9942 69.7032 68.9566C59.5956 60.1318 40.8208 59.3291 40.8208 59.3291C40.8208 59.3291 41.7423 75.7201 51.8491 84.5449C51.8922 84.5825 51.936 84.6195 51.9798 84.6571Z" fill="#174421"/>
<path id="Vector_5" d="M54.551 115.208C54.5247 115.185 54.4984 115.162 54.4722 115.138C54.4452 115.116 54.4189 115.093 54.3919 115.069C50.3592 111.548 48.1886 106.52 47.1605 103.423C48.7789 107.043 51.2779 111.266 54.9895 114.506C55.0238 114.536 55.0588 114.566 55.0931 114.596C55.1281 114.626 55.1617 114.656 55.1967 114.688C58.9032 117.922 63.3948 120.397 67.326 121.993C63.807 121.069 58.5778 118.723 54.551 115.208ZM71.1749 100.545C71.1318 100.507 71.0895 100.469 71.0464 100.431C60.9396 91.6065 42.1641 90.8019 42.1641 90.8019C42.1641 90.8019 43.0848 107.195 53.1924 116.018C53.2355 116.056 53.2792 116.094 53.323 116.132C53.366 116.17 53.4084 116.208 53.4514 116.246C63.559 125.07 79.7546 128.125 82.3338 125.873C84.9131 123.622 81.413 109.482 71.3055 100.657C71.2624 100.619 71.2186 100.583 71.1749 100.545Z" fill="#174421"/>
<path id="Vector_6" d="M128.225 70.1441C128.252 70.1205 128.279 70.0969 128.306 70.0746C128.331 70.0511 128.358 70.0275 128.385 70.0039C132.418 66.483 138.177 64.5885 141.723 63.6909C137.578 65.1026 132.741 67.2851 129.03 70.5257C128.996 70.5562 128.962 70.5868 128.927 70.6168C128.892 70.6467 128.856 70.6766 128.822 70.7066C125.116 73.9427 122.282 77.865 120.454 81.2967C121.513 78.2243 124.2 73.658 128.225 70.1441ZM144.892 84.7711C144.935 84.7335 144.977 84.6953 145.021 84.6571C145.064 84.6195 145.107 84.5825 145.151 84.5449C155.258 75.7201 156.18 59.3291 156.18 59.3291C156.18 59.3291 137.403 60.1318 127.297 68.9566C127.253 68.9942 127.211 69.0325 127.167 69.0707C127.124 69.1083 127.081 69.1452 127.038 69.1828C116.931 78.007 113.43 92.1486 116.01 94.3999C118.589 96.6512 134.785 93.5953 144.892 84.7711Z" fill="#174421"/>
<path id="Vector_7" d="M128.306 101.548C128.331 101.524 128.358 101.501 128.385 101.479C132.418 97.9564 138.177 96.0613 141.723 95.1656C137.578 96.5773 132.741 98.7585 129.03 102C128.996 102.03 128.962 102.06 128.927 102.09C128.892 102.119 128.856 102.15 128.822 102.18C125.116 105.416 122.282 109.338 120.454 112.77C121.513 109.699 124.2 105.133 128.225 101.617C128.252 101.593 128.279 101.572 128.306 101.548ZM127.167 100.545C127.124 100.583 127.081 100.619 127.038 100.657C116.931 109.482 113.43 123.622 116.01 125.873C118.589 128.125 134.785 125.07 144.892 116.246C144.935 116.208 144.977 116.17 145.021 116.132C145.064 116.094 145.107 116.056 145.151 116.018C155.258 107.195 156.18 90.8019 156.18 90.8019C156.18 90.8019 137.403 91.6065 127.297 100.431C127.253 100.469 127.211 100.507 127.167 100.545Z" fill="#174421"/>
<path id="Vector_8" d="M39.4023 139.765C39.4023 139.765 39.5592 139.575 39.862 139.224C40.1728 138.877 40.6361 138.366 41.2877 137.764C41.6095 137.459 41.9838 137.135 42.4048 136.792C42.6112 136.615 42.8404 136.446 43.0753 136.265C43.3146 136.09 43.562 135.906 43.8275 135.724C43.9603 135.635 44.0953 135.543 44.2318 135.451C44.3733 135.361 44.5171 135.272 44.663 135.18C44.8075 135.086 44.96 134.998 45.1132 134.908C45.2671 134.818 45.4218 134.724 45.5845 134.636C46.2266 134.275 46.9321 133.93 47.6968 133.609C49.2253 132.969 51.0027 132.434 52.9574 132.144C53.2018 132.109 53.4477 132.073 53.6965 132.046C53.8213 132.032 53.946 132.018 54.0715 132.004C54.1978 131.993 54.3233 131.981 54.4502 131.97C54.7027 131.945 54.9573 131.933 55.2149 131.915C55.471 131.902 55.73 131.893 55.9905 131.886C56.5092 131.877 57.0361 131.873 57.5643 131.898C58.0933 131.916 58.6266 131.952 59.16 132.002C61.2971 132.205 63.4509 132.651 65.5377 133.271C67.6273 133.89 69.6564 134.671 71.6046 135.534C73.5534 136.398 75.4242 137.343 77.2191 138.295C79.0154 139.245 80.7337 140.209 82.387 141.101C84.0396 141.993 85.6288 142.82 87.1486 143.464C87.9089 143.786 88.6502 144.057 89.3667 144.263C90.0817 144.464 90.7705 144.599 91.4169 144.642C92.0641 144.681 92.6704 144.637 93.233 144.497C93.5139 144.428 93.786 144.338 94.0436 144.228C94.1093 144.202 94.1706 144.169 94.234 144.142C94.2975 144.113 94.3602 144.082 94.4208 144.049C94.4821 144.016 94.5427 143.984 94.6032 143.952C94.663 143.917 94.7221 143.883 94.7805 143.849C95.2518 143.572 95.6532 143.234 96.0165 142.904C96.3777 142.571 96.6834 142.23 96.9519 141.913C97.4867 141.274 97.8617 140.724 98.1142 140.349C98.3666 139.969 98.5002 139.765 98.5002 139.765C98.5002 139.765 98.4899 139.824 98.4702 139.936C98.4469 140.047 98.4243 140.217 98.371 140.433C98.3462 140.541 98.317 140.663 98.2864 140.796C98.2492 140.929 98.2098 141.074 98.1667 141.229C98.1179 141.385 98.0668 141.553 98.0062 141.732C97.9391 141.908 97.8756 142.1 97.7895 142.297C97.6312 142.696 97.4181 143.129 97.1365 143.593C97.0701 143.711 96.9876 143.824 96.9103 143.944C96.8322 144.065 96.7381 144.18 96.6483 144.301C96.5557 144.421 96.4535 144.54 96.3499 144.663C96.2383 144.78 96.1332 144.905 96.0077 145.023C95.5262 145.504 94.8987 145.962 94.1319 146.327C93.368 146.694 92.4618 146.929 91.5227 147.026C90.583 147.122 89.6162 147.079 88.664 146.952C87.7126 146.822 86.7677 146.611 85.8396 146.345C83.9784 145.813 82.1586 145.086 80.347 144.292C78.536 143.495 76.7316 142.628 74.9229 141.756C73.1134 140.883 71.2981 140.01 69.4719 139.201C67.6478 138.39 65.8142 137.645 63.9843 137.027C62.1544 136.407 60.3296 135.919 58.542 135.607C57.6475 135.451 56.7632 135.343 55.8942 135.274C55.4593 135.244 55.0288 135.22 54.6027 135.211C54.4962 135.21 54.3897 135.207 54.2839 135.205C54.1781 135.206 54.0723 135.206 53.9672 135.206C53.7564 135.205 53.5477 135.21 53.339 135.215C51.674 135.261 50.0987 135.495 48.6592 135.832C47.2181 136.167 45.9157 136.613 44.7797 137.069C43.6408 137.525 42.6733 138.001 41.878 138.406C41.4803 138.608 41.1316 138.801 40.8229 138.965C40.518 139.135 40.2589 139.28 40.0488 139.397C39.63 139.64 39.4023 139.765 39.4023 139.765Z" fill="#174421"/>
<path id="Vector_9" d="M157.599 139.765C157.599 139.765 157.369 139.64 156.951 139.397C156.741 139.28 156.482 139.135 156.177 138.965C155.868 138.801 155.521 138.608 155.123 138.406C154.327 138.001 153.359 137.525 152.221 137.069C151.084 136.613 149.783 136.167 148.341 135.832C146.901 135.495 145.325 135.261 143.66 135.215C143.452 135.21 143.243 135.205 143.032 135.206C142.928 135.206 142.821 135.206 142.717 135.205C142.61 135.207 142.504 135.21 142.397 135.211C141.972 135.22 141.541 135.244 141.105 135.274C140.236 135.343 139.353 135.451 138.457 135.607C136.671 135.919 134.846 136.407 133.016 137.027C131.187 137.645 129.353 138.39 127.528 139.201C125.703 140.01 123.887 140.883 122.077 141.756C120.269 142.628 118.463 143.495 116.653 144.292C114.84 145.086 113.021 145.813 111.161 146.345C110.232 146.611 109.288 146.822 108.337 146.952C107.384 147.079 106.417 147.122 105.477 147.026C104.539 146.929 103.632 146.694 102.868 146.327C102.101 145.962 101.473 145.504 100.992 145.023C100.866 144.905 100.762 144.78 100.649 144.663C100.547 144.54 100.444 144.421 100.352 144.301C100.262 144.18 100.168 144.065 100.09 143.944C100.013 143.824 99.9301 143.711 99.8644 143.593C99.5813 143.129 99.369 142.696 99.2107 142.297C99.1253 142.1 99.0611 141.908 98.994 141.732C98.9334 141.553 98.883 141.385 98.8334 141.229C98.7904 141.074 98.7503 140.929 98.7138 140.796C98.6824 140.663 98.654 140.541 98.6284 140.433C98.5766 140.217 98.554 140.047 98.5299 139.936C98.5102 139.824 98.5 139.765 98.5 139.765C98.5 139.765 98.6342 139.969 98.886 140.349C99.1377 140.724 99.5142 141.274 100.048 141.913C100.316 142.23 100.622 142.571 100.984 142.904C101.347 143.234 101.749 143.572 102.22 143.849C102.279 143.883 102.336 143.917 102.397 143.952C102.458 143.984 102.517 144.016 102.579 144.049C102.641 144.082 102.702 144.113 102.766 144.142C102.829 144.169 102.892 144.202 102.956 144.228C103.215 144.338 103.487 144.428 103.767 144.497C104.329 144.637 104.937 144.681 105.583 144.642C106.23 144.599 106.918 144.464 107.634 144.263C108.35 144.057 109.092 143.786 109.852 143.464C111.371 142.82 112.961 141.993 114.613 141.101C116.266 140.209 117.985 139.245 119.781 138.295C121.576 137.343 123.448 136.398 125.395 135.534C127.344 134.671 129.374 133.89 131.462 133.271C133.549 132.651 135.703 132.205 137.84 132.002C138.374 131.952 138.907 131.916 139.437 131.898C139.964 131.873 140.491 131.877 141.01 131.886C141.27 131.893 141.529 131.902 141.786 131.915C142.042 131.933 142.297 131.945 142.55 131.97C142.676 131.981 142.803 131.993 142.929 132.004C143.053 132.018 143.179 132.032 143.303 132.046C143.553 132.073 143.798 132.109 144.042 132.144C145.997 132.434 147.776 132.969 149.303 133.609C150.069 133.93 150.773 134.275 151.416 134.636C151.578 134.724 151.733 134.818 151.888 134.908C152.042 134.998 152.193 135.086 152.338 135.18C152.483 135.272 152.627 135.361 152.767 135.451C152.905 135.543 153.039 135.635 153.173 135.724C153.439 135.906 153.686 136.09 153.925 136.265C154.16 136.446 154.388 136.615 154.595 136.792C155.016 137.135 155.391 137.459 155.712 137.764C156.365 138.366 156.827 138.877 157.138 139.224C157.441 139.575 157.599 139.765 157.599 139.765Z" fill="#174421"/>
</g>
</g>
</g>
<path id="Vector_10" d="M148.95 141.293C148.942 141.287 148.744 141.163 148.386 140.926L147.741 140.517C147.658 140.468 147.573 140.415 147.484 140.36C147.288 140.24 147.086 140.116 146.863 139.986C146.206 139.606 145.407 139.159 144.461 138.73C143.371 138.231 142.333 137.853 141.286 137.575C140.012 137.236 138.732 137.045 137.488 137.007L137.461 137.005C137.323 137.002 137.183 136.998 137.041 136.998L136.715 136.997L136.455 137.003C136.156 137.01 135.822 137.028 135.406 137.061C134.659 137.128 133.932 137.232 133.243 137.371C131.834 137.649 130.319 138.098 128.741 138.707C127.342 139.244 125.836 139.923 124.14 140.782C122.57 141.571 121.017 142.422 119.515 143.246C118.082 144.032 116.459 144.922 114.862 145.722C112.953 146.675 111.472 147.302 110.061 147.762C109.182 148.047 108.328 148.257 107.521 148.382C106.942 148.47 106.384 148.514 105.858 148.514C105.516 148.514 105.176 148.495 104.853 148.458C103.926 148.348 103.051 148.08 102.32 147.682C101.623 147.305 101.011 146.821 100.5 146.245C100.409 146.147 100.333 146.054 100.267 145.97C100.239 145.936 100.212 145.902 100.185 145.868L100.169 145.851L100.134 145.801C100.05 145.69 99.9638 145.575 99.8817 145.454L99.868 145.434C99.845 145.399 99.8219 145.363 99.7977 145.329C99.7429 145.246 99.6819 145.153 99.6228 145.051C99.5992 145.01 99.5787 144.975 99.5594 144.941C99.5133 144.863 99.4611 144.774 99.4126 144.678C99.2582 144.388 99.1213 144.096 99.0006 143.807C98.8799 144.096 98.7436 144.388 98.5887 144.678C98.5402 144.774 98.4885 144.863 98.4425 144.941C98.422 144.975 98.4014 145.01 98.3815 145.045C98.3199 145.153 98.2583 145.245 98.2029 145.327C98.1799 145.363 98.1556 145.399 98.1332 145.434L98.1196 145.454C98.0374 145.573 97.9516 145.689 97.8688 145.8L97.8321 145.85L97.8166 145.868C97.7886 145.902 97.7612 145.936 97.7338 145.97C97.6672 146.054 97.5919 146.147 97.5011 146.245C96.9902 146.821 96.3773 147.305 95.6786 147.683C94.9506 148.08 94.0751 148.348 93.1499 148.458C92.8245 148.495 92.4866 148.514 92.1425 148.514C91.618 148.514 91.0604 148.47 90.4849 148.383C89.6729 148.257 88.8186 148.047 87.9406 147.762C86.5294 147.302 85.0486 146.675 83.1408 145.723C81.5436 144.923 79.9189 144.032 78.486 143.246C76.9845 142.422 75.4321 141.572 73.8635 140.783C72.1648 139.923 70.6597 139.244 69.2609 138.707C67.6817 138.098 66.1678 137.649 64.7591 137.371C64.0678 137.232 63.3386 137.128 62.59 137.06C62.1819 137.028 61.8465 137.01 61.5447 137.003L61.2853 136.997L61.0264 136.998H60.9598C60.8198 136.998 60.6811 137.002 60.5423 137.005L60.5118 137.007C59.268 137.045 57.9893 137.236 56.7144 137.575C55.6678 137.853 54.6306 138.231 53.5411 138.728C52.5947 139.159 51.7957 139.606 51.1387 139.986C50.9159 140.116 50.7131 140.24 50.5171 140.36C50.4281 140.415 50.3429 140.468 50.2601 140.517L49.6148 140.926C49.2571 141.163 49.0598 141.287 49.0517 141.293L45.4186 143.563L47.9149 140.095C47.9212 140.086 48.0581 139.896 48.3206 139.552L48.3299 139.54C48.562 139.245 48.9933 138.699 49.5931 138.069C49.8675 137.773 50.1904 137.453 50.5793 137.09C50.7318 136.943 50.8923 136.804 51.0484 136.669L51.194 136.541L51.3222 136.436C51.4915 136.295 51.6663 136.149 51.8561 136.002L52.2151 135.724L52.5947 135.454C52.7197 135.362 52.8523 135.274 52.9798 135.188L53.0912 135.114C53.1964 135.043 53.3053 134.97 53.4235 134.897C54.0096 134.522 54.6443 134.171 55.3113 133.855C56.8165 133.136 58.4013 132.634 60.0215 132.364L60.1036 132.349C60.2922 132.317 60.4863 132.286 60.6904 132.261L61.0258 132.219L61.3481 132.186C61.5067 132.168 61.6698 132.156 61.8278 132.144C61.8919 132.141 62.0394 132.129 62.0394 132.129C62.2391 132.118 62.4556 132.109 62.7207 132.1C62.9254 132.096 63.1208 132.093 63.3168 132.093C63.6161 132.093 63.8836 132.1 64.135 132.113C64.5998 132.131 65.0771 132.167 65.5444 132.217C67.3538 132.413 69.2441 132.84 71.1624 133.488C72.8604 134.059 74.589 134.794 76.4457 135.729C77.9166 136.472 79.456 137.332 81.2909 138.438C82.228 139.003 83.1427 139.574 84.0275 140.124C84.5956 140.479 85.1537 140.827 85.7037 141.165C87.0042 141.963 88.3874 142.787 89.6884 143.415C90.325 143.721 90.9254 143.968 91.4761 144.148C92.0436 144.331 92.5662 144.441 93.0242 144.477C93.1275 144.483 93.2345 144.486 93.3372 144.486C93.6744 144.486 93.9911 144.446 94.2786 144.365C94.4771 144.309 94.6619 144.239 94.828 144.158L94.8454 144.151C94.8635 144.142 94.8803 144.132 94.8977 144.123C94.9232 144.109 94.9493 144.095 94.9761 144.081C95.0134 144.062 95.0414 144.047 95.0632 144.033L95.0868 144.017L95.2244 143.935L95.3575 143.846C95.7066 143.614 96.0165 143.311 96.2741 143.046C96.5771 142.726 96.8347 142.391 97.0008 142.167C97.4027 141.621 97.6921 141.149 97.9435 140.724L98.1214 140.418L97.4836 136.298L99.0006 138.907L100.517 136.298L99.8792 140.418L100.06 140.729C100.31 141.151 100.597 141.621 101.002 142.169C101.167 142.391 101.425 142.726 101.732 143.051C101.984 143.311 102.294 143.614 102.642 143.846L102.777 143.935L102.927 144.025L102.938 144.033C102.96 144.047 102.988 144.062 103.024 144.081C103.052 144.095 103.078 144.109 103.104 144.123C103.121 144.132 103.138 144.142 103.156 144.151L103.173 144.158C103.339 144.239 103.524 144.309 103.723 144.365C104.01 144.446 104.327 144.486 104.663 144.486C104.767 144.486 104.873 144.483 104.981 144.475C105.435 144.441 105.958 144.331 106.529 144.147C107.076 143.968 107.677 143.721 108.311 143.415C109.614 142.787 110.997 141.963 112.298 141.165C112.848 140.826 113.406 140.478 113.974 140.124C114.86 139.574 115.775 139.002 116.712 138.438C118.545 137.332 120.084 136.472 121.556 135.729C123.413 134.794 125.14 134.059 126.839 133.488C128.758 132.84 130.647 132.413 132.459 132.217C132.924 132.167 133.401 132.131 133.877 132.113C134.117 132.1 134.386 132.093 134.684 132.093C134.88 132.093 135.076 132.096 135.271 132.1C135.545 132.109 135.762 132.118 135.962 132.129C135.962 132.129 136.109 132.141 136.173 132.144C136.331 132.156 136.493 132.168 136.662 132.188L136.997 132.222L137.315 132.262C137.515 132.286 137.71 132.317 137.898 132.349L137.977 132.364C139.601 132.634 141.184 133.136 142.69 133.855C143.357 134.171 143.99 134.522 144.578 134.897C144.697 134.97 144.804 135.043 144.911 135.114L145.021 135.187C145.148 135.274 145.28 135.361 145.412 135.457L145.786 135.724L146.143 136C146.336 136.149 146.51 136.295 146.68 136.436L146.825 136.557L146.952 136.669C147.108 136.803 147.269 136.943 147.421 137.09C147.811 137.453 148.134 137.773 148.409 138.069C149.008 138.7 149.439 139.245 149.671 139.54L149.68 139.552C149.943 139.896 150.08 140.086 150.085 140.095L152.581 143.562L148.95 141.293ZM85.8107 127.699C85.1854 128.321 84.0524 128.635 82.4439 128.635C77.4151 128.635 67.1236 125.447 59.9861 118.359L59.8747 118.246L59.7658 118.139C55.1763 113.582 52.7969 107.015 51.6085 102.309C50.3292 97.2423 50.1226 93.2904 50.1139 93.1248L50.0691 92.2015L50.9993 92.2467C51.1654 92.2541 55.1433 92.4611 60.2461 93.7316C64.9843 94.9107 71.5961 97.2738 76.185 101.833L76.297 101.944L76.4059 102.051C81.6854 107.294 84.2894 113.673 85.3715 117.009C86.6315 120.89 87.5019 126.018 85.8107 127.699ZM49.8538 61.7148C50.0205 61.7235 53.9984 61.9286 59.1006 63.1998C63.8388 64.3789 70.4506 66.742 75.0395 71.3001L75.1515 71.4126L75.2603 71.5195C80.5399 76.7629 83.1445 83.1415 84.2266 86.4773C85.4866 90.3588 86.3571 95.4873 84.6652 97.1675C84.0399 97.7879 82.9069 98.1037 81.2984 98.1037C76.2702 98.1037 65.978 94.915 58.8411 87.827L58.7298 87.7151L58.6203 87.6076C54.0314 83.0501 51.6514 76.4836 50.4636 71.7771C49.1843 66.7098 48.9771 62.7586 48.969 62.5936L48.9229 61.6697L49.8538 61.7148ZM87.5866 105.7C87.5866 98.2848 90.287 91.9463 91.8961 88.8274C93.7696 85.1975 96.8048 80.9601 99.1966 80.9601C101.589 80.9601 104.626 85.1975 106.498 88.8274C108.108 91.9463 110.807 98.2848 110.807 105.7L110.806 105.859L110.807 106.011C110.807 112.457 107.815 118.77 105.306 122.932C102.601 127.414 99.9346 130.353 99.8219 130.476L99.1966 131.161L98.5713 130.476C98.4593 130.353 95.7931 127.414 93.0895 122.932C90.5795 118.77 87.5866 112.457 87.5866 106.011L87.5878 105.853L87.5866 105.7ZM87.5866 53.0781C87.5866 46.6327 90.5795 40.319 93.0895 36.1564C95.7931 31.6743 98.4593 28.7352 98.5713 28.6128L99.1966 27.9269L99.8219 28.6128C99.9346 28.7352 102.601 31.6743 105.306 36.1564C107.815 40.319 110.807 46.6327 110.807 53.0781L110.806 53.2351L110.807 53.389C110.807 60.8033 108.108 67.143 106.498 70.2613C104.626 73.8912 101.589 78.1286 99.1966 78.1286C96.8048 78.1286 93.7696 73.8912 91.8961 70.2613C90.287 67.143 87.5866 60.8033 87.5866 53.389L87.5878 53.2314L87.5866 53.0781ZM113.775 117.009C114.857 113.673 117.462 107.294 122.741 102.051L122.852 101.941L122.962 101.831C127.551 97.2738 134.162 94.9107 138.901 93.7316C144.002 92.4611 147.981 92.2541 148.146 92.2467L149.078 92.2015L149.033 93.1248C149.025 93.2904 148.816 97.2423 147.538 102.309C146.35 107.015 143.971 113.582 139.382 118.139L139.268 118.25L139.159 118.359C132.023 125.447 121.732 128.635 116.704 128.635C116.702 128.635 116.704 128.635 116.702 128.635C115.094 128.635 113.961 128.321 113.336 127.699C111.645 126.018 112.514 120.89 113.775 117.009ZM113.775 86.4773C114.857 83.1415 117.462 76.7629 122.741 71.5195L122.852 71.4101L122.962 71.3001C127.551 66.742 134.162 64.3789 138.901 63.1998C144.002 61.9286 147.981 61.7235 148.146 61.7148L149.078 61.6697L149.033 62.5936C149.025 62.7586 148.816 66.7098 147.538 71.7771C146.35 76.4836 143.971 83.0501 139.382 87.6076L139.268 87.7182L139.159 87.827C132.023 94.915 121.732 98.1037 116.704 98.1037C116.702 98.1037 116.704 98.1037 116.702 98.1037C115.094 98.1037 113.961 97.7879 113.336 97.1675C111.645 95.4873 112.514 90.3588 113.775 86.4773ZM99.0006 5C52.6083 5 15 42.3502 15 88.4258C15 134.501 52.6083 171.852 99.0006 171.852C145.393 171.852 183.001 134.501 183.001 88.4258C183.001 42.3502 145.393 5 99.0006 5Z" fill="white"/>
</g>
<defs>
<clipPath id="clip0_24_241">
<rect width="197" height="172" fill="white"/>
</clipPath>
</defs>
</svg>
