<svg width="30" height="24" viewBox="0 0 30 24" fill="none" xmlns="http://www.w3.org/2000/svg">
<g id="Pin_alt">
<path id="Subtract" d="M15.3301 17.8724L15.7035 18.8001L15.3301 17.8724ZM14.6699 17.8724L14.2965 18.8001L14.2965 18.8001L14.6699 17.8724ZM22.75 9C22.75 11.1249 21.3453 12.9248 19.5219 14.3507C17.7239 15.7568 15.7184 16.6382 14.9567 16.9447L15.7035 18.8001C16.5361 18.465 18.7405 17.5007 20.7539 15.9262C22.7419 14.3716 24.75 12.0561 24.75 9H22.75ZM15 3C19.5 3 22.75 5.88299 22.75 9H24.75C24.75 4.38502 20.165 1 15 1V3ZM7.25 9C7.25 5.88299 10.5 3 15 3V1C9.83499 1 5.25 4.38502 5.25 9H7.25ZM15.0433 16.9447C14.2816 16.6382 12.2761 15.7568 10.4781 14.3507C8.65471 12.9248 7.25 11.1249 7.25 9H5.25C5.25 12.0561 7.25811 14.3716 9.24608 15.9262C11.2595 17.5007 13.4639 18.465 14.2965 18.8001L15.0433 16.9447ZM14.9567 16.9447C14.9654 16.9413 14.9806 16.9373 15 16.9373C15.0194 16.9373 15.0346 16.9413 15.0433 16.9447L14.2965 18.8001C14.7509 18.983 15.2491 18.983 15.7035 18.8001L14.9567 16.9447ZM17.75 9C17.75 9.90787 16.7385 11 15 11V13C17.4036 13 19.75 11.4058 19.75 9H17.75ZM15 7C16.7385 7 17.75 8.09213 17.75 9H19.75C19.75 6.59416 17.4036 5 15 5V7ZM12.25 9C12.25 8.09213 13.2615 7 15 7V5C12.5964 5 10.25 6.59416 10.25 9H12.25ZM15 11C13.2615 11 12.25 9.90787 12.25 9H10.25C10.25 11.4058 12.5964 13 15 13V11Z" fill="#CCD2E3"/>
<path id="Ellipse 40" d="M24.7428 17.5C25.7302 17.9561 26.25 18.4734 26.25 19C26.25 19.5266 25.7302 20.0439 24.7428 20.5C23.7554 20.9561 22.3352 21.3348 20.625 21.5981C18.9148 21.8614 16.9748 22 15 22C13.0252 22 11.0852 21.8614 9.375 21.5981C7.66478 21.3348 6.24461 20.9561 5.25721 20.5C4.26982 20.0439 3.75 19.5266 3.75 19C3.75 18.4734 4.26982 17.9561 5.25721 17.5" stroke="#CCD2E3" stroke-width="2" stroke-linecap="round"/>
</g>
</svg>
