<svg width="33" height="24" viewBox="0 0 33 24" fill="none" xmlns="http://www.w3.org/2000/svg">
<g id="Social Icons" clip-path="url(#clip0_24_265)">
<path id="Vector" d="M16.5 2.16094C20.9086 2.16094 21.4307 2.175 23.1645 2.23125C24.7758 2.28281 25.6459 2.47969 26.226 2.64375C26.993 2.85938 27.5473 3.12188 28.1209 3.53906C28.701 3.96094 29.0555 4.35938 29.352 4.91719C29.5775 5.33906 29.8482 5.97656 29.9191 7.14375C29.9965 8.40937 30.0158 8.78906 30.0158 11.9906C30.0158 15.1969 29.9965 15.5766 29.9191 16.8375C29.8482 18.0094 29.5775 18.6422 29.352 19.0641C29.0555 19.6219 28.6945 20.025 28.1209 20.4422C27.5408 20.8641 26.993 21.1219 26.226 21.3375C25.6459 21.5016 24.7693 21.6984 23.1645 21.75C21.4242 21.8062 20.9022 21.8203 16.5 21.8203C12.0914 21.8203 11.5693 21.8062 9.83555 21.75C8.22422 21.6984 7.3541 21.5016 6.77402 21.3375C6.00703 21.1219 5.45273 20.8594 4.8791 20.4422C4.29902 20.0203 3.94453 19.6219 3.64805 19.0641C3.42246 18.6422 3.15176 18.0047 3.08086 16.8375C3.00352 15.5719 2.98418 15.1922 2.98418 11.9906C2.98418 8.78438 3.00352 8.40469 3.08086 7.14375C3.15176 5.97187 3.42246 5.33906 3.64805 4.91719C3.94453 4.35938 4.30547 3.95625 4.8791 3.53906C5.45918 3.11719 6.00703 2.85938 6.77402 2.64375C7.3541 2.47969 8.23067 2.28281 9.83555 2.23125C11.5693 2.175 12.0914 2.16094 16.5 2.16094ZM16.5 0C12.0205 0 11.4598 0.0140625 9.7002 0.0703125C7.94707 0.126563 6.7418 0.332812 5.69766 0.628125C4.6084 0.9375 3.68672 1.34531 2.77148 2.01562C1.8498 2.68125 1.28906 3.35156 0.863672 4.13906C0.457617 4.90313 0.174023 5.775 0.0966797 7.05C0.0193359 8.33437 0 8.74219 0 12C0 15.2578 0.0193359 15.6656 0.0966797 16.9453C0.174023 18.2203 0.457617 19.0969 0.863672 19.8563C1.28906 20.6484 1.8498 21.3188 2.77148 21.9844C3.68672 22.65 4.6084 23.0625 5.69121 23.3672C6.7418 23.6625 7.94063 23.8687 9.69375 23.925C11.4533 23.9812 12.0141 23.9953 16.4936 23.9953C20.973 23.9953 21.5338 23.9812 23.2934 23.925C25.0465 23.8687 26.2518 23.6625 27.2959 23.3672C28.3787 23.0625 29.3004 22.65 30.2156 21.9844C31.1309 21.3188 31.698 20.6484 32.117 19.8609C32.523 19.0969 32.8066 18.225 32.884 16.95C32.9613 15.6703 32.9807 15.2625 32.9807 12.0047C32.9807 8.74688 32.9613 8.33906 32.884 7.05938C32.8066 5.78438 32.523 4.90781 32.117 4.14844C31.7109 3.35156 31.1502 2.68125 30.2285 2.01562C29.3133 1.35 28.3916 0.9375 27.3088 0.632812C26.2582 0.3375 25.0594 0.13125 23.3063 0.075C21.5402 0.0140625 20.9795 0 16.5 0Z" fill="white"/>
<path id="Vector_2" d="M16.5 5.83594C11.8207 5.83594 8.02441 8.59688 8.02441 12C8.02441 15.4031 11.8207 18.1641 16.5 18.1641C21.1793 18.1641 24.9756 15.4031 24.9756 12C24.9756 8.59688 21.1793 5.83594 16.5 5.83594ZM16.5 15.9984C13.4643 15.9984 11.0021 14.2078 11.0021 12C11.0021 9.79219 13.4643 8.00156 16.5 8.00156C19.5357 8.00156 21.9979 9.79219 21.9979 12C21.9979 14.2078 19.5357 15.9984 16.5 15.9984Z" fill="white"/>
<path id="Vector_3" d="M27.2895 5.59214C27.2895 6.38902 26.4 7.0312 25.3107 7.0312C24.215 7.0312 23.332 6.38433 23.332 5.59214C23.332 4.79526 24.2215 4.15308 25.3107 4.15308C26.4 4.15308 27.2895 4.79995 27.2895 5.59214Z" fill="white"/>
</g>
<defs>
<clipPath id="clip0_24_265">
<rect width="33" height="24" fill="white"/>
</clipPath>
</defs>
</svg>
