<svg width="27" height="22" viewBox="0 0 27 22" fill="none" xmlns="http://www.w3.org/2000/svg">
<g id="Social Icons" clip-path="url(#clip0_24_264)">
<path id="Vector" d="M25.0014 0H1.99336C0.891211 0 0 0.708984 0 1.58555V20.4102C0 21.2867 0.891211 22 1.99336 22H25.0014C26.1035 22 27 21.2867 27 20.4145V1.58555C27 0.708984 26.1035 0 25.0014 0ZM8.01035 18.7473H4.00254V8.2457H8.01035V18.7473ZM6.00645 6.81484C4.71973 6.81484 3.68086 5.96836 3.68086 4.92422C3.68086 3.88008 4.71973 3.03359 6.00645 3.03359C7.28789 3.03359 8.32676 3.88008 8.32676 4.92422C8.32676 5.96406 7.28789 6.81484 6.00645 6.81484ZM23.008 18.7473H19.0055V13.6426C19.0055 12.4266 18.9791 10.8582 16.9225 10.8582C14.8395 10.8582 14.523 12.1859 14.523 13.5566V18.7473H10.5258V8.2457H14.3648V9.68086H14.4176C14.9502 8.85586 16.258 7.98359 18.2039 7.98359C22.2592 7.98359 23.008 10.1578 23.008 12.9852V18.7473Z" fill="white"/>
</g>
<defs>
<clipPath id="clip0_24_264">
<rect width="27" height="22" fill="white"/>
</clipPath>
</defs>
</svg>
