<svg width="31" height="23" viewBox="0 0 31 23" fill="none" xmlns="http://www.w3.org/2000/svg">
<g id="Social Icons" clip-path="url(#clip0_24_263)">
<path id="Vector" d="M15.5 0C6.93966 0 0 5.14878 0 11.5C0 16.893 5.00464 21.4185 11.7558 22.6614V15.0144H8.55972V11.5H11.7558V9.98568C11.7558 6.07154 14.1434 4.2573 19.3229 4.2573C20.305 4.2573 21.9995 4.40036 22.6926 4.54296V7.72846C22.3268 7.69994 21.6913 7.68568 20.9021 7.68568C18.3607 7.68568 17.3786 8.40006 17.3786 10.2571V11.5H22.4415L21.5717 15.0144H17.3786V22.9158C25.0536 22.2281 31.0006 17.3797 31.0006 11.5C31 5.14878 24.0603 0 15.5 0Z" fill="white"/>
</g>
<defs>
<clipPath id="clip0_24_263">
<rect width="31" height="23" fill="white"/>
</clipPath>
</defs>
</svg>
