<svg width="193" height="173" viewBox="0 0 193 173" fill="none" xmlns="http://www.w3.org/2000/svg">
<path id="Vector" d="M153.881 141.315C153.873 141.309 153.645 141.18 153.234 140.935L152.493 140.511C152.398 140.46 152.299 140.404 152.197 140.347C151.973 140.223 151.74 140.094 151.484 139.96C150.729 139.566 149.811 139.102 148.725 138.658C147.473 138.14 146.28 137.748 145.078 137.46C143.614 137.108 142.143 136.911 140.714 136.871L140.684 136.869C140.524 136.866 140.364 136.862 140.201 136.862L139.827 136.861L139.528 136.867C139.184 136.875 138.801 136.893 138.322 136.927C137.464 136.997 136.629 137.105 135.838 137.248C134.219 137.537 132.478 138.003 130.666 138.634C129.058 139.191 127.328 139.894 125.38 140.786C123.577 141.604 121.793 142.486 120.067 143.34C118.421 144.155 116.556 145.078 114.722 145.907C112.528 146.895 110.827 147.546 109.206 148.022C108.196 148.318 107.215 148.535 106.288 148.665C105.623 148.756 104.982 148.803 104.378 148.803C103.985 148.803 103.594 148.782 103.223 148.744C102.158 148.63 101.153 148.353 100.313 147.94C99.5129 147.549 98.8095 147.047 98.222 146.45C98.1176 146.348 98.0311 146.251 97.9546 146.165C97.9232 146.129 97.8917 146.094 97.8603 146.059L97.8424 146.041L97.8017 145.99C97.7059 145.874 97.6065 145.755 97.5122 145.63L97.4965 145.609C97.47 145.572 97.4435 145.535 97.4156 145.5C97.3528 145.414 97.2827 145.317 97.2148 145.212C97.1876 145.169 97.164 145.133 97.1419 145.098C97.089 145.016 97.029 144.924 96.9732 144.825C96.7959 144.524 96.6386 144.222 96.5 143.922C96.3613 144.222 96.2048 144.524 96.0268 144.825C95.971 144.924 95.9117 145.016 95.8588 145.098C95.8352 145.133 95.8116 145.169 95.7887 145.205C95.718 145.317 95.6472 145.413 95.5836 145.498C95.5572 145.535 95.5293 145.572 95.5035 145.609L95.4878 145.63C95.3935 145.753 95.2948 145.873 95.1998 145.988L95.1576 146.04L95.1397 146.059C95.1076 146.094 95.0761 146.129 95.0447 146.165C94.9682 146.251 94.8817 146.348 94.7773 146.45C94.1904 147.047 93.4864 147.549 92.6836 147.94C91.8473 148.353 90.8416 148.63 89.7787 148.744C89.4048 148.782 89.0167 148.803 88.6214 148.803C88.0188 148.803 87.3783 148.756 86.7171 148.667C85.7843 148.535 84.8029 148.318 83.7943 148.022C82.1731 147.546 80.4718 146.895 78.2802 145.908C76.4453 145.079 74.5789 144.155 72.9327 143.34C71.2079 142.486 69.4244 141.605 67.6224 140.786C65.671 139.894 63.9419 139.191 62.335 138.634C60.5208 138.003 58.7816 137.537 57.1633 137.248C56.3691 137.105 55.5314 136.997 54.6715 136.927C54.2026 136.893 53.8173 136.875 53.4706 136.867L53.1726 136.861L52.8752 136.862H52.7987C52.6379 136.862 52.4784 136.866 52.319 136.869L52.284 136.871C50.8551 136.911 49.3862 137.108 47.9216 137.46C46.7192 137.748 45.5276 138.14 44.276 138.656C43.1888 139.102 42.271 139.566 41.5161 139.96C41.2602 140.094 41.0272 140.223 40.802 140.347C40.6998 140.404 40.6019 140.46 40.5068 140.511L39.7656 140.935C39.3545 141.18 39.128 141.309 39.1187 141.315L34.9449 143.668L37.8127 140.073C37.8198 140.064 37.9771 139.867 38.2788 139.51L38.2895 139.497C38.5561 139.192 39.0515 138.626 39.7406 137.973C40.0558 137.666 40.4268 137.333 40.8735 136.957C41.0487 136.805 41.2331 136.661 41.4125 136.52L41.5798 136.388L41.727 136.279C41.9214 136.133 42.1223 135.981 42.3403 135.829L42.7528 135.541L43.1888 135.261C43.3325 135.166 43.4847 135.074 43.6313 134.986L43.7592 134.908C43.88 134.835 44.0051 134.76 44.1409 134.684C44.8143 134.295 45.5434 133.931 46.3097 133.603C48.0388 132.858 49.8594 132.338 51.7208 132.057L51.8151 132.042C52.0317 132.009 52.2547 131.976 52.4892 131.95L52.8744 131.907L53.2447 131.872C53.427 131.854 53.6143 131.841 53.7958 131.829C53.8695 131.826 54.0389 131.813 54.0389 131.813C54.2683 131.802 54.5171 131.792 54.8216 131.783C55.0567 131.779 55.2812 131.776 55.5064 131.776C55.8502 131.776 56.1576 131.783 56.4463 131.797C56.9803 131.816 57.5286 131.853 58.0654 131.905C60.1441 132.108 62.3157 132.55 64.5194 133.223C66.4701 133.815 68.4559 134.576 70.5889 135.546C72.2787 136.317 74.0471 137.208 76.1551 138.355C77.2316 138.941 78.2824 139.532 79.2988 140.103C79.9514 140.471 80.5926 140.832 81.2245 141.182C82.7185 142.009 84.3075 142.864 85.8021 143.515C86.5334 143.833 87.2232 144.089 87.8558 144.276C88.5077 144.465 89.1081 144.579 89.6342 144.616C89.7529 144.622 89.8758 144.626 89.9938 144.626C90.3812 144.626 90.7451 144.584 91.0753 144.501C91.3033 144.442 91.5156 144.37 91.7065 144.286L91.7265 144.278C91.7472 144.269 91.7665 144.258 91.7865 144.25C91.8158 144.235 91.8459 144.22 91.8766 144.206C91.9195 144.186 91.9516 144.171 91.9767 144.156L92.0038 144.14L92.1618 144.055L92.3148 143.962C92.7158 143.722 93.0718 143.408 93.3677 143.133C93.7158 142.801 94.0117 142.454 94.2026 142.221C94.6644 141.655 94.9967 141.166 95.2855 140.725L95.49 140.408L94.7573 136.137L96.5 138.841L98.242 136.137L97.5093 140.408L97.7173 140.73C98.0039 141.168 98.3342 141.655 98.7995 142.223C98.9883 142.454 99.2849 142.801 99.638 143.138C99.9268 143.408 100.284 143.722 100.683 143.962L100.838 144.055L101.011 144.148L101.023 144.156C101.048 144.171 101.081 144.186 101.122 144.206C101.154 144.22 101.184 144.235 101.214 144.25C101.233 144.258 101.253 144.269 101.274 144.278L101.293 144.286C101.484 144.37 101.697 144.442 101.925 144.501C102.255 144.584 102.619 144.626 103.005 144.626C103.124 144.626 103.246 144.622 103.37 144.614C103.892 144.579 104.493 144.465 105.148 144.274C105.777 144.089 106.467 143.833 107.196 143.515C108.693 142.864 110.282 142.009 111.775 141.182C112.407 140.831 113.049 140.47 113.702 140.103C114.719 139.532 115.77 138.94 116.846 138.355C118.952 137.208 120.721 136.317 122.411 135.546C124.545 134.576 126.529 133.815 128.481 133.223C130.685 132.55 132.856 132.108 134.937 131.905C135.471 131.853 136.02 131.816 136.566 131.797C136.842 131.783 137.15 131.776 137.493 131.776C137.718 131.776 137.944 131.779 138.167 131.783C138.482 131.792 138.731 131.802 138.962 131.813C138.962 131.813 139.131 131.826 139.203 131.829C139.385 131.841 139.572 131.854 139.766 131.874L140.151 131.91L140.516 131.952C140.745 131.976 140.969 132.009 141.185 132.042L141.276 132.057C143.141 132.338 144.961 132.858 146.69 133.603C147.457 133.931 148.184 134.295 148.86 134.684C148.996 134.76 149.119 134.835 149.241 134.908L149.368 134.984C149.515 135.074 149.666 135.164 149.817 135.264L150.247 135.541L150.658 135.828C150.878 135.981 151.079 136.133 151.274 136.279L151.441 136.404L151.587 136.52C151.766 136.659 151.951 136.805 152.125 136.957C152.574 137.333 152.945 137.666 153.26 137.973C153.949 138.627 154.444 139.192 154.71 139.497L154.721 139.51C155.022 139.867 155.18 140.064 155.186 140.073L158.054 143.668L153.881 141.315ZM81.3475 127.22C80.6291 127.865 79.3274 128.191 77.4797 128.191C71.7026 128.191 59.8796 124.885 51.68 117.536L51.5521 117.419L51.427 117.308C46.1545 112.583 43.4211 105.775 42.0558 100.895C40.5862 95.6413 40.3488 91.5438 40.3388 91.372L40.2874 90.4148L41.356 90.4616C41.5469 90.4693 46.1166 90.6839 51.9788 92.0013C57.4221 93.2238 65.0176 95.674 70.2894 100.401L70.418 100.516L70.5431 100.627C76.6083 106.063 79.5997 112.677 80.8428 116.136C82.2903 120.16 83.2903 125.478 81.3475 127.22ZM40.0401 58.8047C40.2316 58.8136 44.8014 59.0264 50.6628 60.3444C56.1061 61.5669 63.7017 64.0171 68.9734 68.7431L69.1021 68.8597L69.2271 68.9706C75.2923 74.4073 78.2845 81.0209 79.5276 84.4796C80.9751 88.5041 81.975 93.8216 80.0315 95.5638C79.3131 96.207 78.0115 96.5345 76.1637 96.5345C70.3873 96.5345 58.5636 93.2283 50.3647 85.879L50.2368 85.763L50.111 85.6516C44.8393 80.9261 42.1051 74.1176 40.7406 69.2378C39.2709 63.9837 39.0329 59.8869 39.0236 59.7158L38.9707 58.7579L40.0401 58.8047ZM83.3875 104.411C83.3875 96.7222 86.4898 90.1502 88.3383 86.9164C90.4906 83.1527 93.9774 78.7591 96.7251 78.7591C99.4736 78.7591 102.962 83.1527 105.113 86.9164C106.963 90.1502 110.064 96.7222 110.064 104.411L110.062 104.575L110.064 104.733C110.064 111.416 106.626 117.963 103.743 122.278C100.637 126.925 97.5729 129.972 97.4435 130.099L96.7251 130.81L96.0068 130.099C95.8781 129.972 92.8151 126.925 89.7093 122.278C86.8257 117.963 83.3875 111.416 83.3875 104.733L83.389 104.569L83.3875 104.411ZM83.3875 49.8497C83.3875 43.1668 86.8257 36.6204 89.7093 32.3044C92.8151 27.6572 95.8781 24.6098 96.0068 24.4829L96.7251 23.7717L97.4435 24.4829C97.5729 24.6098 100.637 27.6572 103.743 32.3044C106.626 36.6204 110.064 43.1668 110.064 49.8497L110.062 50.0125L110.064 50.172C110.064 57.8596 106.963 64.4329 105.113 67.6661C102.962 71.4297 99.4736 75.8233 96.7251 75.8233C93.9774 75.8233 90.4906 71.4297 88.3383 67.6661C86.4898 64.4329 83.3875 57.8596 83.3875 50.172L83.389 50.0086L83.3875 49.8497ZM113.472 116.136C114.715 112.677 117.708 106.063 123.773 100.627L123.901 100.513L124.027 100.399C129.298 95.674 136.894 93.2238 142.338 92.0013C148.198 90.6839 152.769 90.4693 152.958 90.4616L154.029 90.4148L153.977 91.372C153.968 91.5438 153.728 95.6413 152.259 100.895C150.895 105.775 148.162 112.583 142.89 117.308L142.76 117.423L142.635 117.536C134.436 124.885 122.614 128.191 116.838 128.191C116.836 128.191 116.838 128.191 116.836 128.191C114.989 128.191 113.687 127.865 112.968 127.22C111.026 125.478 112.024 120.16 113.472 116.136ZM113.472 84.4796C114.715 81.0209 117.708 74.4073 123.773 68.9706L123.901 68.8572L124.027 68.7431C129.298 64.0171 136.894 61.5669 142.338 60.3444C148.198 59.0264 152.769 58.8136 152.958 58.8047L154.029 58.7579L153.977 59.7158C153.968 59.8869 153.728 63.9837 152.259 69.2378C150.895 74.1176 148.162 80.9261 142.89 85.6516L142.76 85.7662L142.635 85.879C134.436 93.2283 122.614 96.5345 116.838 96.5345C116.836 96.5345 116.838 96.5345 116.836 96.5345C114.989 96.5345 113.687 96.207 112.968 95.5638C111.026 93.8216 112.024 88.5041 113.472 84.4796ZM96.5 0C43.2045 0 0 38.7265 0 86.4999C0 134.273 43.2045 173 96.5 173C149.796 173 193 134.273 193 86.4999C193 38.7265 149.796 0 96.5 0Z" fill="white"/>
</svg>
