<svg width="49" height="48" viewBox="0 0 49 48" fill="none" xmlns="http://www.w3.org/2000/svg">
<g id="Cart">
<path id="Union" d="M6.12866 4.59363C5.35201 4.59363 4.72241 5.22323 4.72241 5.99988C4.72241 6.77653 5.35201 7.40613 6.12866 7.40613L6.12866 4.59363ZM11.1287 5.99988L12.4929 5.65881C12.3364 5.0328 11.7739 4.59363 11.1287 4.59363V5.99988ZM38.1287 33.4061C38.9053 33.4061 39.5349 32.7765 39.5349 31.9999C39.5349 31.2232 38.9053 30.5936 38.1287 30.5936V33.4061ZM42.1287 9.99988L43.4929 10.3409C43.5979 9.92084 43.5036 9.47577 43.2371 9.13445C42.9706 8.79313 42.5617 8.59363 42.1287 8.59363V9.99988ZM38.1287 25.9999V27.4061C38.7739 27.4061 39.3364 26.967 39.4929 26.3409L38.1287 25.9999ZM6.12866 7.40613H11.1287V4.59363H6.12866L6.12866 7.40613ZM9.7644 6.34094L10.7644 10.3409L13.4929 9.65881L12.4929 5.65881L9.7644 6.34094ZM10.7644 10.3409L14.7644 26.3409L17.4929 25.6588L13.4929 9.65881L10.7644 10.3409ZM16.1287 24.5936H15.1287V27.4061H16.1287V24.5936ZM15.1287 33.4061H38.1287V30.5936H15.1287V33.4061ZM10.7224 28.9999C10.7224 31.4334 12.6952 33.4061 15.1287 33.4061V30.5936C14.2485 30.5936 13.5349 29.8801 13.5349 28.9999H10.7224ZM15.1287 24.5936C12.6952 24.5936 10.7224 26.5664 10.7224 28.9999H13.5349C13.5349 28.1197 14.2485 27.4061 15.1287 27.4061V24.5936ZM12.1287 11.4061H42.1287V8.59363H12.1287V11.4061ZM40.7644 9.65881L36.7644 25.6588L39.4929 26.3409L43.4929 10.3409L40.7644 9.65881ZM38.1287 24.5936H16.1287V27.4061H38.1287V24.5936ZM36.7224 39.9999C36.7224 40.3278 36.4566 40.5936 36.1287 40.5936V43.4061C38.0099 43.4061 39.5349 41.8811 39.5349 39.9999H36.7224ZM36.1287 40.5936C35.8007 40.5936 35.5349 40.3278 35.5349 39.9999H32.7224C32.7224 41.8811 34.2474 43.4061 36.1287 43.4061V40.5936ZM35.5349 39.9999C35.5349 39.672 35.8007 39.4061 36.1287 39.4061V36.5936C34.2474 36.5936 32.7224 38.1187 32.7224 39.9999H35.5349ZM36.1287 39.4061C36.4566 39.4061 36.7224 39.672 36.7224 39.9999H39.5349C39.5349 38.1187 38.0099 36.5936 36.1287 36.5936V39.4061ZM16.7224 39.9999C16.7224 40.3278 16.4566 40.5936 16.1287 40.5936V43.4061C18.0099 43.4061 19.5349 41.8811 19.5349 39.9999H16.7224ZM16.1287 40.5936C15.8007 40.5936 15.5349 40.3278 15.5349 39.9999H12.7224C12.7224 41.8811 14.2474 43.4061 16.1287 43.4061V40.5936ZM15.5349 39.9999C15.5349 39.672 15.8007 39.4061 16.1287 39.4061V36.5936C14.2474 36.5936 12.7224 38.1187 12.7224 39.9999H15.5349ZM16.1287 39.4061C16.4566 39.4061 16.7224 39.672 16.7224 39.9999H19.5349C19.5349 38.1187 18.0099 36.5936 16.1287 36.5936V39.4061Z" fill="black"/>
</g>
</svg>
