<svg width="178" height="170" viewBox="0 0 178 170" fill="none" xmlns="http://www.w3.org/2000/svg">
<g id="Logo Farmers Fresh 2" clip-path="url(#clip0_138_842)">
<g id="Clip path group">
<mask id="mask0_138_842" style="mask-type:luminance" maskUnits="userSpaceOnUse" x="0" y="0" width="178" height="170">
<g id="clip0">
<path id="Vector" d="M178 0H0V170H178V0Z" fill="white"/>
</g>
</mask>
<g mask="url(#mask0_138_842)">
<g id="Group">
<path id="Vector_2" d="M80.0565 49.1502C80.0565 49.193 80.0558 49.2345 80.0558 49.2767C80.0558 53.8 81.1152 58.2704 82.4595 61.7843C80.8878 58.9919 79.2627 54.1614 79.2627 49.2484C79.2627 49.215 79.2627 49.1823 79.2627 49.1502C79.2627 49.118 79.2627 49.0859 79.2627 49.0532C79.2627 44.1314 81.5556 39.2921 83.1642 36.5015C81.5497 40.018 80.0558 44.494 80.0558 49.0236C80.0558 49.0664 80.0565 49.1086 80.0565 49.1502ZM89.2083 24.6324C89.2083 24.6324 77.8011 36.6501 77.8011 48.9846C77.8011 49.0381 77.8018 49.091 77.8018 49.1426C77.8018 49.1955 77.8011 49.2484 77.8011 49.3013C77.8011 61.6363 85.9127 73.6541 89.2083 73.6541C92.5033 73.6541 100.615 61.6363 100.615 49.3013C100.615 49.2484 100.614 49.1955 100.614 49.1426C100.614 49.091 100.615 49.0381 100.615 48.9846C100.615 36.6501 89.2083 24.6324 89.2083 24.6324Z" fill="#174421"/>
<path id="Vector_3" d="M79.2627 102.848C79.2627 102.816 79.2627 102.783 79.2627 102.751C79.2627 102.719 79.2627 102.687 79.2627 102.654C79.2627 97.7399 80.8878 92.9101 82.4595 90.1176C81.1152 93.6316 80.0558 98.102 80.0558 102.625C80.0558 102.667 80.0565 102.709 80.0565 102.751C80.0565 102.794 80.0558 102.836 80.0558 102.878C80.0558 107.407 81.5497 111.884 83.1642 115.4C81.5556 112.609 79.2627 107.77 79.2627 102.848ZM89.2083 78.2479C85.9127 78.2479 77.8011 90.2669 77.8011 102.601C77.8011 102.654 77.8018 102.706 77.8018 102.759C77.8018 102.812 77.8011 102.864 77.8011 102.917C77.8011 115.251 89.2083 127.27 89.2083 127.27C89.2083 127.27 100.615 115.251 100.615 102.917C100.615 102.864 100.614 102.812 100.614 102.759C100.614 102.706 100.615 102.654 100.615 102.601C100.615 90.2669 92.5033 78.2479 89.2083 78.2479Z" fill="#174421"/>
<path id="Vector_4" d="M48.472 82.0672C48.5037 82.0974 48.5347 82.1264 48.5663 82.156C48.5973 82.1862 48.6283 82.2158 48.6593 82.2454C52.0083 85.4445 56.066 87.89 59.6181 89.4666C56.4398 88.5536 51.7143 86.2353 48.0765 82.7604C48.0527 82.7384 48.029 82.7151 48.0053 82.6924C47.9809 82.6691 47.9565 82.6471 47.9327 82.6238C44.2883 79.1432 42.3271 74.1729 41.3988 71.1135C42.8604 74.6904 45.1184 78.8636 48.472 82.0672ZM46.9663 83.6727C47.0052 83.7105 47.0434 83.7483 47.083 83.7854C56.215 92.5071 70.8493 95.5274 73.1791 93.3023C75.5089 91.0772 72.3471 77.1 63.215 68.3784C63.1755 68.3412 63.1359 68.3047 63.097 68.2676C63.0581 68.2298 63.0192 68.192 62.9803 68.1549C53.8476 59.4326 36.8836 58.6393 36.8836 58.6393C36.8836 58.6393 37.7162 74.8397 46.8483 83.5619C46.8872 83.5991 46.9267 83.6356 46.9663 83.6727Z" fill="#174421"/>
<path id="Vector_5" d="M49.2895 113.869C49.2658 113.846 49.242 113.823 49.2183 113.799C49.1939 113.778 49.1702 113.755 49.1458 113.731C45.5021 110.251 43.5408 105.282 42.6119 102.221C44.0741 105.798 46.3321 109.972 49.6858 113.175C49.7167 113.204 49.7484 113.234 49.7793 113.263C49.811 113.294 49.8413 113.323 49.873 113.354C53.222 116.551 57.2804 118.997 60.8325 120.575C57.6529 119.661 52.928 117.342 49.2895 113.869ZM64.3101 99.3757C64.2712 99.3379 64.2329 99.3008 64.194 99.2636C55.062 90.5414 38.0973 89.7462 38.0973 89.7462C38.0973 89.7462 38.9293 105.948 48.062 114.669C48.1009 114.707 48.1404 114.744 48.18 114.781C48.2189 114.819 48.2571 114.856 48.296 114.894C57.4287 123.616 72.0623 126.636 74.3928 124.41C76.7233 122.185 73.5608 108.209 64.4281 99.4872C64.3892 99.4494 64.3496 99.4135 64.3101 99.3757Z" fill="#174421"/>
<path id="Vector_6" d="M115.858 69.3285C115.882 69.3052 115.906 69.2819 115.931 69.2599C115.954 69.2366 115.978 69.2133 116.003 69.19C119.646 65.71 124.85 63.8375 128.055 62.9504C124.309 64.3456 119.938 66.5027 116.585 69.7057C116.554 69.7359 116.523 69.7661 116.492 69.7957C116.461 69.8253 116.428 69.8549 116.397 69.8845C113.048 73.083 110.488 76.9596 108.836 80.3514C109.794 77.3147 112.221 72.8015 115.858 69.3285ZM130.917 83.7854C130.957 83.7483 130.994 83.7105 131.034 83.6727C131.073 83.6356 131.112 83.5991 131.151 83.5619C140.284 74.8397 141.116 58.6393 141.116 58.6393C141.116 58.6393 124.151 59.4326 115.019 68.1549C114.979 68.192 114.942 68.2298 114.902 68.2676C114.863 68.3047 114.824 68.3412 114.785 68.3784C105.653 77.1 102.49 91.0772 104.821 93.3023C107.151 95.5274 121.785 92.5071 130.917 83.7854Z" fill="#174421"/>
<path id="Vector_7" d="M115.931 100.367C115.954 100.344 115.978 100.321 116.003 100.299C119.646 96.8175 124.85 94.9444 128.055 94.0591C124.309 95.4544 119.938 97.6102 116.585 100.814C116.554 100.843 116.523 100.873 116.492 100.903C116.461 100.932 116.428 100.962 116.397 100.992C113.048 104.19 110.488 108.066 108.836 111.459C109.794 108.423 112.221 103.91 115.858 100.435C115.882 100.412 115.906 100.391 115.931 100.367ZM114.902 99.3757C114.863 99.4135 114.824 99.4494 114.785 99.4872C105.653 108.209 102.49 122.185 104.821 124.41C107.151 126.636 121.785 123.616 130.917 114.894C130.957 114.856 130.994 114.819 131.034 114.781C131.073 114.744 131.112 114.707 131.151 114.669C140.284 105.948 141.116 89.7462 141.116 89.7462C141.116 89.7462 124.151 90.5414 115.019 99.2636C114.979 99.3008 114.942 99.3379 114.902 99.3757Z" fill="#174421"/>
<path id="Vector_8" d="M35.602 138.14C35.602 138.14 35.7437 137.952 36.0173 137.606C36.2981 137.262 36.7168 136.757 37.3055 136.162C37.5962 135.861 37.9344 135.54 38.3148 135.201C38.5014 135.027 38.7084 134.859 38.9207 134.681C39.1369 134.508 39.3604 134.326 39.6004 134.146C39.7204 134.058 39.8423 133.967 39.9656 133.876C40.0935 133.788 40.2234 133.699 40.3552 133.608C40.4858 133.515 40.6236 133.429 40.762 133.339C40.9011 133.25 41.0409 133.157 41.1879 133.071C41.768 132.714 42.4055 132.373 43.0964 132.055C44.4776 131.423 46.0835 130.894 47.8497 130.608C48.0705 130.573 48.2927 130.537 48.5175 130.51C48.6302 130.497 48.743 130.483 48.8564 130.469C48.9704 130.459 49.0838 130.447 49.1985 130.435C49.4266 130.411 49.6567 130.399 49.8894 130.381C50.1208 130.368 50.3549 130.359 50.5902 130.353C51.0589 130.344 51.535 130.34 52.0123 130.364C52.4902 130.382 52.9721 130.418 53.454 130.467C55.385 130.668 57.3312 131.109 59.2166 131.721C61.1048 132.333 62.9382 133.105 64.6984 133.958C66.4593 134.813 68.1496 135.746 69.7714 136.687C71.3945 137.626 72.947 138.579 74.4409 139.46C75.9341 140.342 77.37 141.159 78.7432 141.796C79.4302 142.114 80.1 142.382 80.7474 142.586C81.3935 142.784 82.0158 142.918 82.5999 142.96C83.1847 142.999 83.7325 142.955 84.2408 142.817C84.4946 142.748 84.7405 142.66 84.9733 142.551C85.0326 142.525 85.088 142.493 85.1453 142.466C85.2027 142.437 85.2594 142.407 85.3141 142.374C85.3694 142.342 85.4242 142.31 85.4789 142.278C85.5329 142.243 85.5863 142.21 85.6391 142.177C86.065 141.903 86.4276 141.568 86.7559 141.242C87.0822 140.913 87.3584 140.576 87.601 140.263C88.0843 139.631 88.4231 139.088 88.6512 138.717C88.8794 138.342 89 138.14 89 138.14C89 138.14 88.9908 138.198 88.973 138.309C88.9519 138.419 88.9314 138.587 88.8833 138.8C88.8609 138.907 88.8345 139.027 88.8068 139.159C88.7732 139.29 88.7376 139.433 88.6987 139.587C88.6546 139.741 88.6084 139.907 88.5537 140.084C88.493 140.258 88.4357 140.448 88.3579 140.643C88.2148 141.037 88.0223 141.465 87.7678 141.924C87.7078 142.04 87.6333 142.152 87.5635 142.271C87.4929 142.39 87.4079 142.503 87.3268 142.623C87.243 142.741 87.1508 142.859 87.0571 142.981C86.9563 143.097 86.8613 143.221 86.748 143.337C86.3128 143.812 85.7459 144.265 85.053 144.625C84.3628 144.988 83.544 145.22 82.6955 145.316C81.8464 145.412 80.9728 145.369 80.1125 145.244C79.2528 145.115 78.3991 144.907 77.5605 144.643C75.8788 144.118 74.2346 143.399 72.5976 142.614C70.9613 141.827 69.331 140.97 67.6967 140.108C66.0617 139.245 64.4215 138.382 62.7714 137.582C61.1232 136.781 59.4665 136.044 57.8131 135.433C56.1596 134.821 54.5108 134.339 52.8956 134.03C52.0874 133.876 51.2884 133.769 50.5032 133.701C50.1103 133.671 49.7213 133.648 49.3363 133.639C49.2401 133.638 49.1438 133.635 49.0482 133.633C48.9526 133.634 48.8571 133.634 48.7621 133.634C48.5716 133.633 48.383 133.638 48.1945 133.643C46.6901 133.689 45.2667 133.919 43.966 134.252C42.664 134.584 41.4872 135.024 40.4607 135.476C39.4316 135.926 38.5574 136.397 37.8388 136.797C37.4795 136.997 37.1644 137.187 36.8856 137.349C36.61 137.517 36.3759 137.66 36.1861 137.776C35.8076 138.016 35.602 138.14 35.602 138.14Z" fill="#174421"/>
<path id="Vector_9" d="M142.399 138.14C142.399 138.14 142.192 138.016 141.814 137.776C141.624 137.66 141.39 137.517 141.114 137.349C140.835 137.187 140.521 136.997 140.162 136.797C139.443 136.397 138.568 135.926 137.54 135.476C136.513 135.024 135.337 134.584 134.034 134.252C132.733 133.919 131.309 133.689 129.805 133.643C129.617 133.638 129.428 133.633 129.237 133.634C129.143 133.634 129.047 133.634 128.952 133.633C128.856 133.635 128.76 133.638 128.663 133.639C128.279 133.648 127.89 133.671 127.496 133.701C126.711 133.769 125.913 133.876 125.104 134.03C123.489 134.339 121.84 134.821 120.187 135.433C118.534 136.044 116.877 136.781 115.228 137.582C113.579 138.382 111.938 139.245 110.303 140.108C108.67 140.97 107.038 141.827 105.402 142.614C103.764 143.399 102.121 144.118 100.439 144.643C99.6002 144.907 98.7478 145.115 97.8881 145.244C97.0271 145.369 96.1536 145.412 95.3038 145.316C94.4567 145.22 93.6372 144.988 92.9463 144.625C92.2541 144.265 91.6865 143.812 91.252 143.337C91.138 143.221 91.0437 143.097 90.9422 142.981C90.8492 142.859 90.7569 142.741 90.6732 142.623C90.5921 142.503 90.5071 142.39 90.4365 142.271C90.3667 142.152 90.2921 142.04 90.2328 141.924C89.977 141.465 89.7852 141.037 89.6421 140.643C89.565 140.448 89.507 140.258 89.4463 140.084C89.3916 139.907 89.3461 139.741 89.3013 139.587C89.2624 139.433 89.2261 139.29 89.1932 139.159C89.1648 139.027 89.1391 138.907 89.116 138.8C89.0692 138.587 89.0488 138.419 89.027 138.309C89.0092 138.198 89 138.14 89 138.14C89 138.14 89.1213 138.342 89.3487 138.717C89.5762 139.088 89.9164 139.631 90.399 140.263C90.6409 140.576 90.9178 140.913 91.2441 141.242C91.5724 141.568 91.9357 141.903 92.3616 142.177C92.4143 142.21 92.4664 142.243 92.5211 142.278C92.5765 142.31 92.6299 142.342 92.6859 142.374C92.7413 142.407 92.7967 142.437 92.8547 142.466C92.9114 142.493 92.9681 142.525 93.0261 142.551C93.2601 142.66 93.506 142.748 93.7592 142.817C94.2668 142.955 94.816 142.999 95.4001 142.96C95.9849 142.918 96.6065 142.784 97.2526 142.586C97.9 142.382 98.5705 142.114 99.2567 141.796C100.63 141.159 102.066 140.342 103.559 139.46C105.052 138.579 106.606 137.626 108.229 136.687C109.85 135.746 111.541 134.813 113.301 133.958C115.062 133.105 116.896 132.333 118.783 131.721C120.668 131.109 122.615 130.668 124.546 130.467C125.029 130.418 125.51 130.382 125.988 130.364C126.465 130.34 126.941 130.344 127.41 130.353C127.645 130.359 127.879 130.368 128.111 130.381C128.343 130.399 128.573 130.411 128.801 130.435C128.916 130.447 129.03 130.459 129.144 130.469C129.256 130.483 129.37 130.497 129.482 130.51C129.708 130.537 129.929 130.573 130.15 130.608C131.916 130.894 133.523 131.423 134.903 132.055C135.595 132.373 136.231 132.714 136.813 133.071C136.958 133.157 137.099 133.25 137.239 133.339C137.378 133.429 137.514 133.515 137.645 133.608C137.777 133.699 137.906 133.788 138.033 133.876C138.158 133.967 138.279 134.058 138.4 134.146C138.64 134.326 138.863 134.508 139.079 134.681C139.292 134.859 139.498 135.027 139.685 135.201C140.066 135.54 140.404 135.861 140.695 136.162C141.284 136.757 141.701 137.262 141.983 137.606C142.256 137.952 142.399 138.14 142.399 138.14Z" fill="#174421"/>
</g>
</g>
</g>
<path id="Vector_10" d="M138.95 130.172C138.942 130.167 138.744 130.062 138.386 129.862L137.741 129.517C137.658 129.475 137.573 129.43 137.484 129.384C137.288 129.282 137.086 129.177 136.863 129.068C136.206 128.747 135.407 128.369 134.461 128.007C133.371 127.585 132.333 127.265 131.286 127.03C130.012 126.744 128.732 126.582 127.488 126.55L127.461 126.549C127.323 126.546 127.183 126.543 127.041 126.543L126.715 126.542L126.455 126.547C126.156 126.553 125.822 126.568 125.406 126.596C124.659 126.653 123.932 126.741 123.243 126.858C121.834 127.093 120.319 127.473 118.741 127.987C117.342 128.441 115.836 129.014 114.14 129.741C112.57 130.408 111.017 131.127 109.515 131.823C108.082 132.486 106.459 133.239 104.862 133.915C102.953 134.72 101.472 135.25 100.061 135.638C99.182 135.88 98.3277 136.057 97.5207 136.163C96.942 136.237 96.3839 136.275 95.8581 136.275C95.5159 136.275 95.1755 136.258 94.8532 136.227C93.9255 136.134 93.0507 135.908 92.3202 135.571C91.6233 135.253 91.011 134.844 90.4995 134.357C90.4087 134.274 90.3334 134.195 90.2669 134.125C90.2395 134.095 90.2121 134.067 90.1847 134.038L90.1692 134.024L90.1337 133.982C90.0503 133.888 89.9638 133.79 89.8817 133.689L89.868 133.671C89.845 133.642 89.8219 133.612 89.7977 133.583C89.7429 133.513 89.6819 133.434 89.6228 133.348C89.5992 133.313 89.5787 133.284 89.5594 133.255C89.5133 133.189 89.4611 133.114 89.4126 133.033C89.2582 132.787 89.1213 132.541 89.0006 132.297C88.8799 132.541 88.7436 132.787 88.5887 133.033C88.5402 133.114 88.4885 133.189 88.4425 133.255C88.422 133.284 88.4014 133.313 88.3815 133.343C88.3199 133.434 88.2583 133.512 88.2029 133.582C88.1799 133.612 88.1556 133.642 88.1332 133.671L88.1196 133.689C88.0374 133.789 87.9516 133.887 87.8688 133.981L87.8321 134.023L87.8166 134.038C87.7886 134.067 87.7612 134.095 87.7338 134.125C87.6672 134.195 87.5919 134.274 87.5011 134.357C86.9902 134.844 86.3773 135.253 85.6786 135.572C84.9506 135.908 84.0751 136.134 83.1499 136.227C82.8245 136.258 82.4866 136.275 82.1425 136.275C81.618 136.275 81.0604 136.237 80.4849 136.164C79.6729 136.057 78.8186 135.88 77.9406 135.638C76.5294 135.25 75.0486 134.72 73.1408 133.916C71.5436 133.24 69.9189 132.486 68.486 131.823C66.9845 131.127 65.4321 130.408 63.8635 129.741C62.1648 129.014 60.6597 128.441 59.2609 127.987C57.6817 127.473 56.1678 127.093 54.7591 126.858C54.0678 126.741 53.3386 126.653 52.59 126.596C52.1819 126.568 51.8465 126.553 51.5447 126.547L51.2853 126.542L51.0264 126.543H50.9598C50.8198 126.543 50.6811 126.546 50.5423 126.549L50.5118 126.55C49.268 126.582 47.9893 126.744 46.7144 127.03C45.6678 127.265 44.6306 127.585 43.5411 128.005C42.5947 128.369 41.7957 128.747 41.1387 129.068C40.9159 129.177 40.7131 129.282 40.5171 129.384C40.4281 129.43 40.3429 129.475 40.2601 129.517L39.6148 129.862C39.2571 130.062 39.0598 130.167 39.0517 130.172L35.4186 132.09L37.9149 129.16C37.9212 129.153 38.0581 128.992 38.3206 128.701L38.3299 128.691C38.562 128.442 38.9933 127.98 39.5931 127.448C39.8675 127.198 40.1904 126.927 40.5793 126.621C40.7318 126.497 40.8923 126.379 41.0484 126.264L41.194 126.157L41.3222 126.068C41.4915 125.949 41.6663 125.825 41.8561 125.701L42.2151 125.467L42.5947 125.238C42.7197 125.16 42.8523 125.086 42.9798 125.014L43.0912 124.951C43.1964 124.891 43.3053 124.829 43.4235 124.768C44.0096 124.451 44.6443 124.154 45.3113 123.887C46.8165 123.28 48.4013 122.855 50.0215 122.627L50.1036 122.614C50.2922 122.588 50.4863 122.561 50.6904 122.54L51.0258 122.505L51.3481 122.476C51.5067 122.461 51.6698 122.451 51.8278 122.441C51.8919 122.438 52.0394 122.428 52.0394 122.428C52.2391 122.419 52.4556 122.411 52.7207 122.404C52.9254 122.4 53.1208 122.398 53.3168 122.398C53.6161 122.398 53.8836 122.404 54.135 122.415C54.5998 122.43 55.0771 122.461 55.5444 122.503C57.3538 122.668 59.2441 123.029 61.1624 123.577C62.8604 124.06 64.589 124.68 66.4457 125.471C67.9166 126.098 69.456 126.825 71.2909 127.76C72.228 128.237 73.1427 128.719 74.0275 129.185C74.5956 129.484 75.1537 129.779 75.7037 130.064C77.0042 130.738 78.3874 131.435 79.6884 131.965C80.325 132.224 80.9254 132.433 81.4761 132.585C82.0436 132.739 82.5662 132.832 83.0242 132.862C83.1275 132.868 83.2345 132.871 83.3372 132.871C83.6744 132.871 83.9911 132.836 84.2786 132.768C84.4771 132.721 84.6619 132.662 84.828 132.594L84.8454 132.587C84.8635 132.579 84.8803 132.571 84.8977 132.564C84.9232 132.552 84.9493 132.54 84.9761 132.528C85.0134 132.512 85.0414 132.5 85.0632 132.488L85.0868 132.474L85.2244 132.405L85.3575 132.33C85.7066 132.134 86.0165 131.878 86.2741 131.654C86.5771 131.384 86.8347 131.1 87.0008 130.91C87.4027 130.449 87.6921 130.051 87.9435 129.691L88.1214 129.433L87.4836 125.952L89.0006 128.156L90.517 125.952L89.8792 129.433L90.0603 129.695C90.3098 130.052 90.5973 130.449 91.0023 130.913C91.1666 131.1 91.4248 131.384 91.7322 131.658C91.9836 131.878 92.2941 132.134 92.6419 132.33L92.7769 132.405L92.9275 132.481L92.938 132.488C92.9598 132.5 92.9884 132.512 93.0239 132.528C93.0519 132.54 93.0781 132.552 93.1042 132.564C93.121 132.571 93.1378 132.579 93.1558 132.587L93.1726 132.594C93.3394 132.662 93.5242 132.721 93.7233 132.768C94.0101 132.836 94.3269 132.871 94.6629 132.871C94.7668 132.871 94.8732 132.868 94.9808 132.861C95.435 132.832 95.9583 132.739 96.5289 132.584C97.0758 132.433 97.6769 132.224 98.3109 131.965C99.6145 131.435 100.997 130.738 102.298 130.064C102.848 129.778 103.406 129.483 103.974 129.185C104.86 128.719 105.775 128.236 106.712 127.76C108.545 126.825 110.084 126.098 111.556 125.471C113.413 124.68 115.14 124.06 116.839 123.577C118.758 123.029 120.647 122.668 122.459 122.503C122.924 122.461 123.401 122.43 123.877 122.415C124.117 122.404 124.386 122.398 124.684 122.398C124.88 122.398 125.076 122.4 125.271 122.404C125.545 122.411 125.762 122.419 125.962 122.428C125.962 122.428 126.109 122.438 126.173 122.441C126.331 122.451 126.493 122.461 126.662 122.478L126.997 122.507L127.315 122.541C127.515 122.561 127.71 122.588 127.898 122.614L127.977 122.627C129.601 122.855 131.184 123.28 132.69 123.887C133.357 124.154 133.99 124.451 134.578 124.768C134.697 124.829 134.804 124.891 134.911 124.951L135.021 125.013C135.148 125.086 135.28 125.159 135.412 125.241L135.786 125.467L136.143 125.7C136.336 125.825 136.51 125.949 136.68 126.068L136.825 126.17L136.952 126.264C137.108 126.378 137.269 126.497 137.421 126.621C137.811 126.927 138.134 127.198 138.409 127.448C139.008 127.981 139.439 128.442 139.671 128.691L139.68 128.701C139.943 128.992 140.08 129.153 140.085 129.16L142.581 132.09L138.95 130.172ZM75.8107 118.685C75.1854 119.211 74.0524 119.476 72.4439 119.476C67.4151 119.476 57.1236 116.782 49.9861 110.792L49.8747 110.697L49.7658 110.607C45.1763 106.755 42.7969 101.207 41.6085 97.2294C40.3292 92.9479 40.1226 89.6084 40.1139 89.4685L40.0691 88.6883L40.9993 88.7264C41.1654 88.7327 45.1433 88.9076 50.2461 89.9813C54.9843 90.9776 61.5961 92.9745 66.185 96.8268L66.297 96.9208L66.4059 97.0117C71.6854 101.442 74.2894 106.832 75.3715 109.651C76.6315 112.931 77.5019 117.265 75.8107 118.685ZM39.8538 62.926C40.0205 62.9333 43.9984 63.1066 49.1006 64.1808C53.8388 65.1772 60.4506 67.1741 65.0395 71.0259L65.1515 71.1209L65.2603 71.2112C70.5399 75.6421 73.1445 81.0323 74.2266 83.8511C75.4866 87.1311 76.3571 91.4649 74.6652 92.8847C74.0399 93.409 72.9069 93.6759 71.2984 93.6759C66.2702 93.6759 55.978 90.9813 48.8411 84.9916L48.7298 84.8971L48.6203 84.8063C44.0314 80.955 41.6514 75.4061 40.4636 71.429C39.1843 67.1469 38.9771 63.808 38.969 63.6685L38.9229 62.8878L39.8538 62.926ZM77.5866 100.095C77.5866 93.8289 80.287 88.4726 81.8961 85.8371C83.7696 82.7697 86.8048 79.1889 89.1966 79.1889C91.5891 79.1889 94.6255 82.7697 96.4984 85.8371C98.1081 88.4726 100.807 93.8289 100.807 100.095L100.806 100.229L100.807 100.357C100.807 105.805 97.815 111.14 95.3056 114.657C92.6014 118.444 89.9346 120.928 89.8219 121.031L89.1966 121.611L88.5713 121.031C88.4593 120.928 85.7931 118.444 83.0895 114.657C80.5795 111.14 77.5866 105.805 77.5866 100.357L77.5878 100.224L77.5866 100.095ZM77.5866 55.6277C77.5866 50.1811 80.5795 44.8458 83.0895 41.3282C85.7931 37.5407 88.4593 35.0571 88.5713 34.9537L89.1966 34.374L89.8219 34.9537C89.9346 35.0571 92.6014 37.5407 95.3056 41.3282C97.815 44.8458 100.807 50.1811 100.807 55.6277L100.806 55.7603L100.807 55.8903C100.807 62.1557 98.1081 67.513 96.4984 70.148C94.6255 73.2154 91.5891 76.7962 89.1966 76.7962C86.8048 76.7962 83.7696 73.2154 81.8961 70.148C80.287 67.513 77.5866 62.1557 77.5866 55.8903L77.5878 55.7572L77.5866 55.6277ZM103.775 109.651C104.857 106.832 107.462 101.442 112.741 97.0117L112.852 96.9187L112.962 96.8253C117.551 92.9745 124.162 90.9776 128.901 89.9813C134.002 88.9076 137.981 88.7327 138.146 88.7264L139.078 88.6883L139.033 89.4685C139.025 89.6084 138.816 92.9479 137.538 97.2294C136.35 101.207 133.971 106.755 129.382 110.606L129.268 110.7L129.159 110.792C122.023 116.782 111.732 119.476 106.704 119.476C106.702 119.476 106.704 119.476 106.702 119.476C105.094 119.476 103.961 119.211 103.336 118.685C101.645 117.265 102.514 112.931 103.775 109.651ZM103.775 83.8511C104.857 81.0323 107.462 75.6421 112.741 71.2112L112.852 71.1188L112.962 71.0259C117.551 67.1741 124.162 65.1772 128.901 64.1808C134.002 63.1066 137.981 62.9333 138.146 62.926L139.078 62.8878L139.033 63.6685C139.025 63.808 138.816 67.1469 137.538 71.429C136.35 75.4061 133.971 80.955 129.382 84.8063L129.268 84.8997L129.159 84.9916C122.023 90.9813 111.732 93.6759 106.704 93.6759C106.702 93.6759 106.704 93.6759 106.702 93.6759C105.094 93.6759 103.961 93.409 103.336 92.8847C101.645 91.4649 102.514 87.1311 103.775 83.8511ZM89.0006 15C42.6083 15 5 46.5622 5 85.4977C5 124.433 42.6083 155.995 89.0006 155.995C135.393 155.995 173.001 124.433 173.001 85.4977C173.001 46.5622 135.393 15 89.0006 15Z" fill="white"/>
</g>
<defs>
<clipPath id="clip0_138_842">
<rect width="178" height="170" fill="white"/>
</clipPath>
</defs>
</svg>
